<?xml version="1.0" standalone="no"?>
<!DOCTYPE svg PUBLIC "-//W3C//DTD SVG 20010904//EN"
 "http://www.w3.org/TR/2001/REC-SVG-20010904/DTD/svg10.dtd">
<svg version="1.0" xmlns="http://www.w3.org/2000/svg"
 width="709.000000pt" height="709.000000pt" viewBox="0 0 709.000000 709.000000"
 preserveAspectRatio="xMidYMid meet">
<metadata>
Created by potrace 1.11, written by Peter Selinger 2001-2013
</metadata>
<g transform="translate(0.000000,709.000000) scale(0.100000,-0.100000)"
fill="#000000" stroke="none">
<path d="M345 3573 l0 -578 195 -3 196 -2 0 85 0 85 -127 0 -126 0 -1 483 c0
265 -1 488 -1 495 -1 8 -22 12 -69 12 l-68 0 1 -577z"/>
<path d="M2840 3920 c0 -212 -1 -230 -17 -231 -10 -1 -43 -1 -74 -1 l-56 0 0
-87 1 -87 55 -1 c31 0 64 -1 74 -2 16 -1 17 -21 17 -261 l0 -260 75 0 75 0 0
260 c0 143 3 261 8 261 37 6 215 2 219 -5 3 -4 6 -123 5 -262 l0 -254 74 0 74
0 0 580 0 580 -74 0 -74 0 0 -226 c1 -149 -3 -228 -9 -232 -9 -6 -118 -7 -205
-3 -17 1 -18 19 -18 231 l0 230 -75 0 -75 0 0 -230z"/>
<path d="M3420 4067 l0 -82 83 0 c45 1 87 0 92 -2 6 -2 10 -177 10 -498 l0
-495 75 0 75 0 0 491 c0 270 2 494 5 498 3 3 32 6 65 7 l60 0 -3 -498 -3 -498
75 0 75 0 3 461 3 461 29 23 c50 40 127 14 144 -48 5 -17 10 -205 10 -417 1
-212 1 -406 1 -432 l1 -48 75 0 c64 0 75 2 76 18 0 9 1 211 2 447 2 397 3 432
20 457 35 51 115 58 155 13 16 -20 22 -39 23 -78 0 -29 0 -233 0 -455 l0 -403
77 3 77 3 1 465 c0 484 -2 523 -43 592 -66 113 -256 131 -343 32 -16 -19 -30
-39 -30 -44 0 -6 -4 -10 -10 -10 -5 0 -10 6 -10 13 0 22 -74 87 -111 97 -58
17 -112 12 -167 -16 -29 -14 -52 -30 -52 -35 0 -5 -4 -9 -10 -9 -5 0 -10 16
-10 35 l0 35 -260 0 -260 0 0 -83z"/>
<path d="M4918 4148 c0 -2 -2 -263 -3 -580 l-1 -578 196 0 196 0 -1 83 0 82
-127 3 -126 3 -1 457 c0 251 0 474 0 495 l-1 37 -65 0 c-36 0 -66 -1 -67 -2z"/>
<path d="M1330 3980 c0 -8 -227 -652 -255 -722 -6 -16 0 -18 64 -18 69 0 72 1
81 28 20 56 22 57 110 57 l83 0 15 -43 14 -42 69 0 c38 0 69 3 69 7 0 13 -241
743 -246 743 -2 0 -4 -5 -4 -10z m27 -442 l19 -73 -34 -3 c-60 -6 -62 -1 -38
77 11 39 24 71 27 71 3 0 15 -33 26 -72z"/>
<path d="M693 3915 c-55 -39 -84 -137 -63 -216 12 -45 64 -103 84 -93 6 3 -4
-6 -22 -21 -76 -62 -99 -183 -54 -272 34 -66 57 -73 232 -73 l150 0 0 75 0 75
-104 0 c-89 0 -107 3 -130 21 -31 24 -34 57 -7 90 16 20 27 23 110 23 l91 1 0
70 0 70 -95 0 c-54 1 -99 5 -105 11 -16 16 -16 70 0 89 10 12 36 15 125 15
l113 0 4 71 c2 39 1 73 -1 75 -2 2 -72 4 -155 4 -119 0 -156 -3 -173 -15z"/>
<path d="M1630 3585 l0 -345 69 0 69 0 -1 118 0 117 45 3 c37 2 49 -1 71 -24
28 -28 30 -37 29 -156 l0 -58 68 0 69 0 -3 88 c-3 95 -28 171 -64 193 -18 11
-17 14 18 49 59 59 70 170 26 267 -39 85 -61 93 -243 93 l-153 0 0 -345z m271
168 c6 -6 13 -28 16 -49 8 -60 -17 -84 -89 -89 -65 -3 -66 -3 -60 97 l4 58 59
-3 c33 -2 64 -8 70 -14z"/>
<path d="M2140 3585 l0 -345 70 0 70 0 0 241 0 241 29 29 c33 32 71 38 95 13
20 -20 19 -2 22 -264 1 -124 3 -233 3 -242 1 -15 11 -18 66 -18 l65 0 0 73 c3
412 -1 489 -25 550 -10 24 -86 67 -119 67 -32 0 -93 -24 -118 -47 -17 -15 -18
-14 -18 15 l0 32 -70 0 -70 0 0 -345z"/>
<path d="M5526 3915 c-38 -38 -124 -185 -138 -235 -20 -73 -15 -172 11 -235
12 -27 45 -85 74 -127 l52 -78 104 0 c81 0 101 3 94 13 -5 6 -37 46 -71 87
-157 193 -154 322 14 507 l76 83 -100 0 c-77 0 -104 -4 -116 -15z"/>
<path d="M5940 3921 c-82 -26 -150 -89 -194 -181 -26 -56 -31 -78 -32 -153 -2
-95 14 -158 60 -228 104 -156 290 -184 423 -65 128 116 157 326 66 483 -30 52
-93 109 -144 132 -41 19 -137 25 -179 12z m159 -181 c136 -96 74 -350 -84
-350 -135 0 -211 182 -127 305 52 76 142 95 211 45z"/>
<path d="M6431 3903 c-58 -46 -61 -62 -61 -378 l0 -285 65 0 c55 0 65 3 66 18
0 9 1 122 1 250 l1 233 24 19 c30 23 49 17 60 -18 5 -15 8 -134 8 -264 l-1
-238 62 0 62 0 0 243 c0 165 3 251 11 265 15 28 57 29 71 3 6 -12 10 -115 10
-265 l0 -246 65 0 c45 0 65 4 66 13 6 76 2 533 -5 567 -13 71 -61 110 -133
110 -58 0 -105 -28 -130 -80 -20 -39 -23 -41 -23 -18 0 34 -49 83 -91 92 -60
12 -93 6 -128 -21z"/>
<path d="M5190 3305 l0 -65 54 0 c61 0 64 5 57 88 l-3 42 -54 0 -54 0 0 -65z"/>
</g>
</svg>
